<?xml version="1.0" encoding="UTF-8"?>
<svg width="700pt" height="700pt" version="1.1" viewBox="0 0 700 700" xmlns="http://www.w3.org/2000/svg" xmlns:xlink="http://www.w3.org/1999/xlink">
 <defs>
  <symbol id="u" overflow="visible">
   <path d="m18.766-1.125c-0.96875 0.5-1.9805 0.875-3.0312 1.125-1.043 0.25781-2.1367 0.39062-3.2812 0.39062-3.3984 0-6.0898-0.94531-8.0781-2.8438-1.9922-1.9062-2.9844-4.4844-2.9844-7.7344 0-3.2578 0.99219-5.8359 2.9844-7.7344 1.9883-1.9062 4.6797-2.8594 8.0781-2.8594 1.1445 0 2.2383 0.13281 3.2812 0.39062 1.0508 0.25 2.0625 0.625 3.0312 1.125v4.2188c-0.98047-0.65625-1.9453-1.1406-2.8906-1.4531-0.94922-0.3125-1.9492-0.46875-3-0.46875-1.875 0-3.3516 0.60547-4.4219 1.8125-1.0742 1.1992-1.6094 2.8555-1.6094 4.9688 0 2.1055 0.53516 3.7617 1.6094 4.9688 1.0703 1.1992 2.5469 1.7969 4.4219 1.7969 1.0508 0 2.0508-0.14844 3-0.45312 0.94531-0.3125 1.9102-0.80078 2.8906-1.4688z"/>
  </symbol>
  <symbol id="c" overflow="visible">
   <path d="m13.734-11.141c-0.4375-0.19531-0.87109-0.34375-1.2969-0.4375-0.41797-0.10156-0.83984-0.15625-1.2656-0.15625-1.2617 0-2.2305 0.40625-2.9062 1.2188-0.67969 0.80469-1.0156 1.9531-1.0156 3.4531v7.0625h-4.8906v-15.312h4.8906v2.5156c0.625-1 1.3438-1.7266 2.1562-2.1875 0.82031-0.46875 1.8008-0.70312 2.9375-0.70312 0.16406 0 0.34375 0.011719 0.53125 0.03125 0.19531 0.011719 0.47656 0.039062 0.84375 0.078125z"/>
  </symbol>
  <symbol id="b" overflow="visible">
   <path d="m17.641-7.7031v1.4062h-11.453c0.125 1.1484 0.53906 2.0078 1.25 2.5781 0.70703 0.57422 1.7031 0.85938 2.9844 0.85938 1.0312 0 2.082-0.14844 3.1562-0.45312 1.082-0.3125 2.1914-0.77344 3.3281-1.3906v3.7656c-1.1562 0.4375-2.3125 0.76562-3.4688 0.98438-1.1562 0.22656-2.3125 0.34375-3.4688 0.34375-2.7734 0-4.9297-0.70312-6.4688-2.1094-1.5312-1.4062-2.2969-3.3789-2.2969-5.9219 0-2.5 0.75391-4.4609 2.2656-5.8906 1.5078-1.4375 3.582-2.1562 6.2188-2.1562 2.4062 0 4.332 0.73047 5.7812 2.1875 1.4453 1.4492 2.1719 3.3828 2.1719 5.7969zm-5.0312-1.625c0-0.92578-0.27344-1.6719-0.8125-2.2344-0.54297-0.57031-1.25-0.85938-2.125-0.85938-0.94922 0-1.7188 0.26562-2.3125 0.79688s-0.96484 1.2969-1.1094 2.2969z"/>
  </symbol>
  <symbol id="e" overflow="visible">
   <path d="m9.2188-6.8906c-1.0234 0-1.793 0.17188-2.3125 0.51562-0.51172 0.34375-0.76562 0.85547-0.76562 1.5312 0 0.625 0.20703 1.1172 0.625 1.4688 0.41406 0.34375 0.98828 0.51562 1.7188 0.51562 0.92578 0 1.7031-0.32812 2.3281-0.98438 0.63281-0.66406 0.95312-1.4922 0.95312-2.4844v-0.5625zm7.4688-1.8438v8.7344h-4.9219v-2.2656c-0.65625 0.92969-1.3984 1.6055-2.2188 2.0312-0.82422 0.41406-1.8242 0.625-3 0.625-1.5859 0-2.8711-0.45703-3.8594-1.375-0.99219-0.92578-1.4844-2.1289-1.4844-3.6094 0-1.7891 0.61328-3.1016 1.8438-3.9375 1.2383-0.84375 3.1797-1.2656 5.8281-1.2656h2.8906v-0.39062c0-0.76953-0.30859-1.332-0.92188-1.6875-0.61719-0.36328-1.5703-0.54688-2.8594-0.54688-1.0547 0-2.0312 0.10547-2.9375 0.3125-0.89844 0.21094-1.7305 0.52344-2.5 0.9375v-3.7344c1.0391-0.25 2.0859-0.44141 3.1406-0.57812 1.0625-0.13281 2.125-0.20312 3.1875-0.20312 2.7578 0 4.75 0.54688 5.9688 1.6406 1.2266 1.0859 1.8438 2.8555 1.8438 5.3125z"/>
  </symbol>
  <symbol id="a" overflow="visible">
   <path d="m7.7031-19.656v4.3438h5.0469v3.5h-5.0469v6.5c0 0.71094 0.14062 1.1875 0.42188 1.4375s0.83594 0.375 1.6719 0.375h2.5156v3.5h-4.1875c-1.9375 0-3.3125-0.39844-4.125-1.2031-0.80469-0.8125-1.2031-2.1797-1.2031-4.1094v-6.5h-2.4219v-3.5h2.4219v-4.3438z"/>
  </symbol>
  <symbol id="k" overflow="visible">
   <path d="m12.766-13.078v-8.2031h4.9219v21.281h-4.9219v-2.2188c-0.66797 0.90625-1.4062 1.5703-2.2188 1.9844s-1.7578 0.625-2.8281 0.625c-1.8867 0-3.4336-0.75-4.6406-2.25-1.2109-1.5-1.8125-3.4258-1.8125-5.7812 0-2.3633 0.60156-4.2969 1.8125-5.7969 1.207-1.5 2.7539-2.25 4.6406-2.25 1.0625 0 2 0.21484 2.8125 0.64062 0.82031 0.42969 1.5664 1.0859 2.2344 1.9688zm-3.2188 9.9219c1.0391 0 1.8359-0.37891 2.3906-1.1406 0.55078-0.76953 0.82812-1.8828 0.82812-3.3438 0-1.457-0.27734-2.5664-0.82812-3.3281-0.55469-0.76953-1.3516-1.1562-2.3906-1.1562-1.043 0-1.8398 0.38672-2.3906 1.1562-0.55469 0.76172-0.82812 1.8711-0.82812 3.3281 0 1.4609 0.27344 2.5742 0.82812 3.3438 0.55078 0.76172 1.3477 1.1406 2.3906 1.1406z"/>
  </symbol>
  <symbol id="j" overflow="visible">
   <path d="m10.5-3.1562c1.0508 0 1.8516-0.37891 2.4062-1.1406 0.55078-0.76953 0.82812-1.8828 0.82812-3.3438 0-1.457-0.27734-2.5664-0.82812-3.3281-0.55469-0.76953-1.3555-1.1562-2.4062-1.1562-1.0547 0-1.8594 0.38672-2.4219 1.1562-0.55469 0.77344-0.82812 1.8828-0.82812 3.3281 0 1.4492 0.27344 2.5586 0.82812 3.3281 0.5625 0.77344 1.3672 1.1562 2.4219 1.1562zm-3.25-9.9219c0.67578-0.88281 1.4219-1.5391 2.2344-1.9688 0.82031-0.42578 1.7656-0.64062 2.8281-0.64062 1.8945 0 3.4453 0.75 4.6562 2.25 1.207 1.5 1.8125 3.4336 1.8125 5.7969 0 2.3555-0.60547 4.2812-1.8125 5.7812-1.2109 1.5-2.7617 2.25-4.6562 2.25-1.0625 0-2.0078-0.21094-2.8281-0.625-0.8125-0.42578-1.5586-1.0859-2.2344-1.9844v2.2188h-4.8906v-21.281h4.8906z"/>
  </symbol>
  <symbol id="i" overflow="visible">
   <path d="m0.34375-15.312h4.8906l4.125 10.391 3.5-10.391h4.8906l-6.4375 16.766c-0.64844 1.6953-1.4023 2.8828-2.2656 3.5625-0.86719 0.6875-2 1.0312-3.4062 1.0312h-2.8438v-3.2188h1.5312c0.83203 0 1.4375-0.13672 1.8125-0.40625 0.38281-0.26172 0.67969-0.73047 0.89062-1.4062l0.14062-0.42188z"/>
  </symbol>
  <symbol id="h" overflow="visible">
   <path d="m1.5781-20.406h17.156v3.1719l-10.953 13.25h11.266v3.9844h-17.781v-3.1875l10.938-13.25h-10.625z"/>
  </symbol>
  <symbol id="g" overflow="visible">
   <path d="m14.719-14.828v3.9844c-0.65625-0.45703-1.3242-0.79688-2-1.0156-0.66797-0.21875-1.3594-0.32812-2.0781-0.32812-1.3672 0-2.4336 0.40234-3.2031 1.2031-0.76172 0.79297-1.1406 1.9062-1.1406 3.3438 0 1.4297 0.37891 2.543 1.1406 3.3438 0.76953 0.79297 1.8359 1.1875 3.2031 1.1875 0.75781 0 1.4844-0.10938 2.1719-0.32812 0.6875-0.22656 1.3203-0.56641 1.9062-1.0156v4c-0.76172 0.28125-1.5391 0.48828-2.3281 0.625-0.78125 0.14453-1.5742 0.21875-2.375 0.21875-2.7617 0-4.9219-0.70703-6.4844-2.125-1.5547-1.4141-2.3281-3.3828-2.3281-5.9062 0-2.5312 0.77344-4.5039 2.3281-5.9219 1.5625-1.4141 3.7227-2.125 6.4844-2.125 0.80078 0 1.5938 0.074219 2.375 0.21875 0.78125 0.13672 1.5547 0.35156 2.3281 0.64062z"/>
  </symbol>
  <symbol id="f" overflow="visible">
   <path d="m17.75-9.3281v9.3281h-4.9219v-7.1094c0-1.3438-0.03125-2.2656-0.09375-2.7656s-0.16797-0.86719-0.3125-1.1094c-0.1875-0.3125-0.44922-0.55469-0.78125-0.73438-0.32422-0.17578-0.69531-0.26562-1.1094-0.26562-1.0234 0-1.8242 0.39844-2.4062 1.1875-0.58594 0.78125-0.875 1.8711-0.875 3.2656v7.5312h-4.8906v-21.281h4.8906v8.2031c0.73828-0.88281 1.5195-1.5391 2.3438-1.9688 0.83203-0.42578 1.75-0.64062 2.75-0.64062 1.7695 0 3.1133 0.54688 4.0312 1.6406 0.91406 1.0859 1.375 2.6562 1.375 4.7188z"/>
  </symbol>
  <symbol id="t" overflow="visible">
   <path d="m10.75-12.516c0.82031 0 1.4453-0.17969 1.875-0.54688 0.4375-0.36328 0.65625-0.89844 0.65625-1.6094 0-0.69531-0.21875-1.2266-0.65625-1.5938-0.42969-0.375-1.0547-0.5625-1.875-0.5625h-2.9219v4.3125zm0.17188 8.9375c1.0625 0 1.8594-0.22266 2.3906-0.67188 0.53125-0.44531 0.79688-1.125 0.79688-2.0312 0-0.88281-0.26562-1.5469-0.79688-1.9844-0.52344-0.4375-1.3203-0.65625-2.3906-0.65625h-3.0938v5.3438zm4.8906-7.3438c1.1328 0.32422 2.0078 0.92969 2.625 1.8125 0.625 0.88672 0.9375 1.9688 0.9375 3.25 0 1.9688-0.66797 3.4375-2 4.4062-1.3359 0.96875-3.3555 1.4531-6.0625 1.4531h-8.7344v-20.406h7.8906c2.832 0 4.8828 0.42969 6.1562 1.2812 1.2812 0.85547 1.9219 2.2266 1.9219 4.1094 0 1-0.23438 1.8516-0.70312 2.5469-0.46875 0.6875-1.1484 1.2031-2.0312 1.5469z"/>
  </symbol>
  <symbol id="d" overflow="visible">
   <path d="m9.6406-12.188c-1.0859 0-1.9141 0.39062-2.4844 1.1719-0.57422 0.78125-0.85938 1.9062-0.85938 3.375s0.28516 2.5938 0.85938 3.375c0.57031 0.77344 1.3984 1.1562 2.4844 1.1562 1.0625 0 1.875-0.38281 2.4375-1.1562 0.57031-0.78125 0.85938-1.9062 0.85938-3.375s-0.28906-2.5938-0.85938-3.375c-0.5625-0.78125-1.375-1.1719-2.4375-1.1719zm0-3.5c2.6328 0 4.6914 0.71484 6.1719 2.1406 1.4766 1.418 2.2188 3.3867 2.2188 5.9062 0 2.5117-0.74219 4.4805-2.2188 5.9062-1.4805 1.418-3.5391 2.125-6.1719 2.125-2.6484 0-4.7148-0.70703-6.2031-2.125-1.4922-1.4258-2.2344-3.3945-2.2344-5.9062 0-2.5195 0.74219-4.4883 2.2344-5.9062 1.4883-1.4258 3.5547-2.1406 6.2031-2.1406z"/>
  </symbol>
  <symbol id="s" overflow="visible">
   <path d="m12.766-2.5938c-0.66797 0.88672-1.4062 1.543-2.2188 1.9688-0.8125 0.41797-1.7578 0.625-2.8281 0.625-1.8672 0-3.4062-0.73438-4.625-2.2031-1.2188-1.4766-1.8281-3.3516-1.8281-5.625 0-2.2891 0.60938-4.1641 1.8281-5.625 1.2188-1.4688 2.7578-2.2031 4.625-2.2031 1.0703 0 2.0156 0.21484 2.8281 0.64062 0.8125 0.41797 1.5508 1.0742 2.2188 1.9688v-2.2656h4.9219v13.766c0 2.457-0.77734 4.3359-2.3281 5.6406-1.5547 1.3008-3.8086 1.9531-6.7656 1.9531-0.94922 0-1.8711-0.074219-2.7656-0.21875-0.89844-0.14844-1.7969-0.37109-2.7031-0.67188v-3.8125c0.86328 0.48828 1.7031 0.85156 2.5156 1.0938 0.82031 0.23828 1.6484 0.35938 2.4844 0.35938 1.6016 0 2.7734-0.35156 3.5156-1.0469 0.75-0.69922 1.125-1.7969 1.125-3.2969zm-3.2188-9.5312c-1.0117 0-1.8047 0.375-2.375 1.125-0.5625 0.74219-0.84375 1.7969-0.84375 3.1719 0 1.3984 0.26953 2.4609 0.8125 3.1875 0.55078 0.71875 1.3516 1.0781 2.4062 1.0781 1.0195 0 1.8125-0.36719 2.375-1.1094 0.5625-0.75 0.84375-1.8008 0.84375-3.1562 0-1.375-0.28125-2.4297-0.84375-3.1719-0.5625-0.75-1.3555-1.125-2.375-1.125z"/>
  </symbol>
  <symbol id="r" overflow="visible">
   <path d="m12.422-21.281v3.2188h-2.7031c-0.6875 0-1.1719 0.125-1.4531 0.375-0.27344 0.25-0.40625 0.6875-0.40625 1.3125v1.0625h4.1875v3.5h-4.1875v11.812h-4.8906v-11.812h-2.4375v-3.5h2.4375v-1.0625c0-1.6641 0.46094-2.8984 1.3906-3.7031 0.92578-0.80078 2.3672-1.2031 4.3281-1.2031z"/>
  </symbol>
  <symbol id="q" overflow="visible">
   <path d="m16.547-12.766c0.61328-0.94531 1.3477-1.6719 2.2031-2.1719 0.85156-0.5 1.7891-0.75 2.8125-0.75 1.7578 0 3.0977 0.54688 4.0156 1.6406 0.92578 1.0859 1.3906 2.6562 1.3906 4.7188v9.3281h-4.9219v-7.9844-0.35938c0.007813-0.13281 0.015625-0.32031 0.015625-0.5625 0-1.082-0.16406-1.8633-0.48438-2.3438-0.3125-0.48828-0.82422-0.73438-1.5312-0.73438-0.92969 0-1.6484 0.38672-2.1562 1.1562-0.51172 0.76172-0.77344 1.8672-0.78125 3.3125v7.5156h-4.9219v-7.9844c0-1.6953-0.14844-2.7852-0.4375-3.2656-0.29297-0.48828-0.8125-0.73438-1.5625-0.73438-0.9375 0-1.6641 0.38672-2.1719 1.1562-0.51172 0.76172-0.76562 1.8594-0.76562 3.2969v7.5312h-4.9219v-15.312h4.9219v2.2344c0.60156-0.86328 1.2891-1.5156 2.0625-1.9531 0.78125-0.4375 1.6406-0.65625 2.5781-0.65625 1.0625 0 2 0.25781 2.8125 0.76562 0.8125 0.51172 1.4258 1.2305 1.8438 2.1562z"/>
  </symbol>
  <symbol id="p" overflow="visible">
   <path d="m2.5781-20.406h5.875l7.4219 14v-14h4.9844v20.406h-5.875l-7.4219-14v14h-4.9844z"/>
  </symbol>
  <symbol id="o" overflow="visible">
   <path d="m2.1875-5.9688v-9.3438h4.9219v1.5312c0 0.83594-0.007813 1.875-0.015625 3.125-0.011719 1.25-0.015625 2.0859-0.015625 2.5 0 1.2422 0.03125 2.1328 0.09375 2.6719 0.070313 0.54297 0.17969 0.93359 0.32812 1.1719 0.20703 0.32422 0.47266 0.57422 0.79688 0.75 0.32031 0.16797 0.69141 0.25 1.1094 0.25 1.0195 0 1.8203-0.39062 2.4062-1.1719 0.58203-0.78125 0.875-1.8672 0.875-3.2656v-7.5625h4.8906v15.312h-4.8906v-2.2188c-0.74219 0.89844-1.5234 1.5586-2.3438 1.9844-0.82422 0.41406-1.7344 0.625-2.7344 0.625-1.7617 0-3.1055-0.53906-4.0312-1.625-0.92969-1.082-1.3906-2.6602-1.3906-4.7344z"/>
  </symbol>
  <symbol id="n" overflow="visible">
   <path d="m17.75-9.3281v9.3281h-4.9219v-7.1406c0-1.3203-0.03125-2.2344-0.09375-2.7344s-0.16797-0.86719-0.3125-1.1094c-0.1875-0.3125-0.44922-0.55469-0.78125-0.73438-0.32422-0.17578-0.69531-0.26562-1.1094-0.26562-1.0234 0-1.8242 0.39844-2.4062 1.1875-0.58594 0.78125-0.875 1.8711-0.875 3.2656v7.5312h-4.8906v-15.312h4.8906v2.2344c0.73828-0.88281 1.5195-1.5391 2.3438-1.9688 0.83203-0.42578 1.75-0.64062 2.75-0.64062 1.7695 0 3.1133 0.54688 4.0312 1.6406 0.91406 1.0859 1.375 2.6562 1.375 4.7188z"/>
  </symbol>
  <symbol id="m" overflow="visible">
   <path d="m2.5781-20.406h8.7344c2.5938 0 4.582 0.57812 5.9688 1.7344 1.3945 1.1484 2.0938 2.7891 2.0938 4.9219 0 2.1367-0.69922 3.7812-2.0938 4.9375-1.3867 1.1562-3.375 1.7344-5.9688 1.7344h-3.4844v7.0781h-5.25zm5.25 3.8125v5.7031h2.9219c1.0195 0 1.8047-0.25 2.3594-0.75 0.5625-0.5 0.84375-1.2031 0.84375-2.1094 0-0.91406-0.28125-1.6172-0.84375-2.1094-0.55469-0.48828-1.3398-0.73438-2.3594-0.73438z"/>
  </symbol>
  <symbol id="l" overflow="visible">
   <path d="m2.3594-15.312h4.8906v15.031c0 2.0508-0.49609 3.6172-1.4844 4.7031-0.98047 1.082-2.4062 1.625-4.2812 1.625h-2.4219v-3.2188h0.85938c0.92578 0 1.5625-0.21094 1.9062-0.625 0.35156-0.41797 0.53125-1.2461 0.53125-2.4844zm0-5.9688h4.8906v4h-4.8906z"/>
  </symbol>
 </defs>
 <g>
  <path d="m372.34 506.95h0.20703c-1.832 0.035156-3.6797-0.011719-5.5117-0.14453 0 0-2.0664-0.17969-3.1758-0.3125 0 0-2.0117-0.26172-3.5547-0.55859 0 0-1.1602-0.22266-2.1289-0.44141 0 0-0.75781-0.19531-1.25-0.41406-3.0781-1.3945-4.6328-5.4336-3.2188-8.5508 1.0547-2.3203 3.5391-3.875 6.0938-3.793 0.98047 0.035157 1.9141 0.32031 2.8945 0.50391 0.14453 0.027343 0.14063 0.027343 0.26953 0.050781 0.60547 0.11328 1.2031 0.20703 1.8125 0.29297 0 0 1.332 0.18359 2.4922 0.28516 0 0 3.0469 0.19141 4.5977 0.17188 0.14062 0 0.28516 0 0.42969-0.003907 1.1406-0.023437 2.2734-0.078124 3.4062-0.16797 0 0 0.75781-0.066406 1.2617-0.125 0.33203-0.035156 0.72656-0.085938 0.72656-0.085938 2.0234-0.24219 4.0195-0.59766 6.0156-1.043 0 0 0.76562-0.15625 1.3086-0.17188 3.3828-0.10156 6.5469 2.7773 6.6484 6.2656 0.078126 2.543-1.4844 5.0352-3.8086 6.082-0.63672 0.28516-1.3281 0.4375-1.9922 0.57812-2.4258 0.52734-4.8711 0.93359-7.332 1.1992 0 0-0.92578 0.10156-1.6055 0.15625-1.3438 0.11719-2.6992 0.19141-4.043 0.22266-0.16797 0-0.33203 0.003906-0.54297 0.003906zm68.176-48.027c1.0742 0.30078 1.3906 0.30859 2.3477 0.92578 2.4531 1.5781 3.6055 5.0117 2.5078 7.8008-0.41406 1.0547-0.67188 1.2422-1.3672 2.1172l-0.19141 0.20312c-2.2227 2.2891-4.5312 4.5312-6.8438 6.6602 0 0-0.69531 0.63281-1.1211 1.0117-0.32422 0.29688-0.66016 0.59375-0.99219 0.89062-3.1758 2.8125-6.4727 5.5039-9.7617 7.9336 0 0-0.70703 0.51953-1.3555 0.99609l-0.003906 0.003906c-0.72656 0.42578-1.4688 0.86328-2.2852 1.0586-3.6719 0.89453-7.8125-2.0234-7.9805-6.0039-0.074219-1.6914 0.54688-3.3945 1.6953-4.6406 0.33984-0.37109 0.91797-0.82422 0.96875-0.86328 0.042969-0.035156 0.09375-0.066406 0.14453-0.10547 0.18359-0.13281 0.37109-0.26953 0.55469-0.40234 3.5781-2.6445 7.1719-5.5781 10.355-8.4492 1.8359-1.668 3.6445-3.3711 5.4023-5.1172l0.25391-0.25391c0.62891-0.62891 1.25-1.2617 1.8711-1.8984l0.96484-0.82422c0.37109-0.20312 0.72266-0.44141 1.1094-0.60938 1.043-0.45312 1.3477-0.41016 2.4648-0.53906 0.42188 0.035157 0.83984 0.074219 1.2617 0.10547zm-127.21-7.4023c0.40234 0.11719 0.82422 0.19531 1.2148 0.34766 1.8594 0.74609 3.0508 2.5312 4.1758 4.1445l0.26953 0.37891c3.7734 5.3633 7.6602 10.645 11.676 15.707l0.62109 0.78516c0.41406 0.50391 0.82812 1.0078 1.2539 1.5078l0.71875 1.043c0.16797 0.38672 0.375 0.76172 0.50391 1.1602 0.90234 2.8164-0.38672 6.1602-3.0234 7.6211-2.2227 1.2305-5.1562 0.99219-7.1523-0.59375-0.55859-0.44922-1.0117-1.0078-1.457-1.5352l-0.72656-0.88672-1.0195-1.2695c-4.0312-5.1523-7.8945-10.316-11.691-15.727l-0.28516-0.39844c-0.52734-0.76172-1.0547-1.5195-1.5781-2.2773l-0.60938-1.1094c-0.33594-1.0625-0.50781-1.3281-0.52734-2.4648-0.035157-2.543 1.5664-5.0117 3.9102-6.0195 1.043-0.44922 1.3555-0.39844 2.4648-0.51953 0.42188 0.035156 0.84375 0.066406 1.2656 0.10547zm-61.848-23.402c0.39844 0.14062 0.8125 0.24219 1.1914 0.42188 3.0703 1.4297 4.5742 5.4805 3.1289 8.5859-0.71875 1.5352-2.0508 2.7617-3.6406 3.3438-1.6641 0.60547-3.3945 0.64453-4.9336 0.84375 0 0-1.8359 0.24609-3.5547 0.4375-2.2773 0.25391-4.5469 0.44922-6.8594 0.60938-3.3672 0.23438-6.7578 0.36328-10.09 0.36328h-0.17969c-0.66797 0-1.3398-0.003906-2.0039-0.011718l-0.41016-0.003906-1.2617-0.14063c-0.40234-0.12891-0.81641-0.21094-1.2109-0.37891-2.7148-1.1641-4.3945-4.3281-3.7734-7.2734 0.53125-2.4922 2.6367-4.5469 5.1406-5.0117 0.60547-0.11328 1.3945-0.10547 1.4961-0.10547 2.7734 0.035157 5.4766-0.015625 8.3672-0.14453 0.28125-0.011719 0.55859-0.027344 0.84375-0.039062 2.8242-0.14453 5.6953-0.38672 8.5117-0.69922 2.2461-0.25391 4.5312-0.55469 6.7148-0.89453l1.2656-0.066407c0.41406 0.054688 0.83594 0.11719 1.2539 0.17188zm223.76-23.055c1.0938 0.22266 1.4102 0.20312 2.4062 0.74609 2.5977 1.4062 3.9883 4.7031 3.0977 7.5898-0.15234 0.48047-0.47656 1.1367-0.50781 1.1992-0.36328 0.67578-0.72656 1.3477-1.0859 2.0273l-0.28125 0.51953-0.27344 0.51953c-1.1602 2.1914-2.3008 4.3867-3.4453 6.5898l-0.29688 0.57031c-2.1836 4.2656-9.1562 18.047-11.484 22.203l-0.72266 1.0352c-0.30859 0.29297-0.58203 0.61719-0.91406 0.87891-2.9727 2.3398-7.9453 1.3984-9.7539-2.1523-0.76562-1.5117-0.90625-3.3164-0.38672-4.9297 0.21094-0.64844 0.64453-1.3945 0.64453-1.3945 0.33594-0.60547 0.66797-1.2109 0.99219-1.8203 0 0 0.51562-0.97266 0.86719-1.6562 1.3594-2.6602 7.6055-14.812 8.9727-17.484l0.30078-0.59766c0.30078-0.57812 0.59766-1.1523 0.89453-1.7344l0.30078-0.57812c0.29297-0.56641 0.58984-1.1328 0.87891-1.6953l0.29297-0.55469c1.0352-1.9727 2.0781-3.9375 3.1289-5.8984 0 0 0.39062-0.67578 0.73438-1.0859 0.80469-0.97266 1.9023-1.707 3.1289-2.0664 0.80469-0.24219 1.6641-0.24219 2.5078-0.23438zm-310.49 6.875c0.39844 0.14062 0.8125 0.24219 1.1914 0.42188 1.5 0.69922 2.6953 1.8047 4.0781 2.7031 0.62109 0.41016 0.77734 0.5 1.0039 0.63672 0.71875 0.45312 1.4453 0.90234 2.1797 1.3203 0 0 0.74609 0.42969 1.293 0.73828 1.3555 0.75781 2.7383 1.4727 4.1445 2.1445 0.11328 0.054688 0.11328 0.054688 0.23047 0.11328 2.168 1.0312 4.3906 1.9883 6.6094 2.8242 0.90234 0.33984 1.8086 0.67188 2.7109 0.98438 0 0 0.73828 0.27344 1.2031 0.54688 2.5547 1.4883 3.832 4.832 2.8438 7.6836-0.96484 2.793-3.9922 4.6992-6.9844 4.2891-1.6133-0.21875-2.9414-0.88672-4.207-1.3672l-0.14453-0.054688c-1.8594-0.71875-3.6953-1.4688-5.5508-2.3008-1.8633-0.83594-3.6953-1.7266-5.4648-2.6641 0 0-0.73828-0.39844-1.5195-0.82422l-0.98047-0.54688c-0.72656-0.42188-1.457-0.84375-2.1719-1.2812 0 0-0.66797-0.41016-1.3281-0.82422 0 0-0.64453-0.41016-1.0586-0.68359-0.60547-0.39844-1.4297-0.95703-1.4297-0.95703-0.58984-0.41016-1.4062-0.98047-1.4062-0.98047-0.25391-0.18359-0.58984-0.42969-0.58984-0.42969-0.3125-0.28125-0.66016-0.53125-0.94531-0.84375-2.0117-2.1914-2.2109-5.7773-0.45313-8.1797 1.0039-1.3672 2.5469-2.3086 4.2227-2.5703 0.83594-0.12891 1.6797-0.011719 2.5195 0.10547zm148.38 6.4453c-0.47656 0.28125-1.0742 0.62891-1.0742 0.62891-0.89453 0.51953-1.793 1.0352-2.6992 1.5391l-0.17188 0.09375c-1.0742 0.60547-2.1602 1.1914-3.2578 1.7734l-1.0938 0.57031c-2.0547 1.0625-4.1328 2.1055-6.2344 3.0898l-0.085937 0.039063-0.10547 0.50391-0.50781 1.1602c-0.63672 0.91797-0.73828 1.2148-1.6289 1.9219-1.332 1.0547-3.0742 1.5469-4.7617 1.3477-1.125-0.13281-1.3711-0.33203-2.3984-0.77344l-0.11328-0.078125-0.57031 0.16797-1.2617 0.11719c-0.42188-0.042969-0.84375-0.050781-1.2617-0.13281-2.8945-0.59375-5.1797-3.3477-5.1562-6.3672 0.003906-0.84375 0.17188-1.6875 0.50391-2.4648 0.42969-1.0195 0.64844-1.1719 1.3203-1.9766-0.72656-1.5586-1.4453-3.125-2.1445-4.6914l-0.16797-0.39062c-0.39062-0.89062-0.78516-1.7812-1.1719-2.6758l-0.16406-0.375c-1.1328-2.6484-2.2109-5.3125-3.2539-7.9961l-0.003906-0.011719c-0.22266-0.81641-0.44922-1.6406-0.42969-2.4883 0.089844-3.7812 3.9805-7.0156 7.8672-6.1484 1.6562 0.37109 3.1367 1.4102 4.043 2.8438 0.23047 0.35938 0.37891 0.75 0.57031 1.1328 0.027344 0.050781 1.1016 2.8242 2.0234 5.0508 0.25391 0.60547 0.50391 1.2109 0.75781 1.8086l0.15625 0.37109c0.20703 0.48047 0.41406 0.96484 0.62109 1.4453l0.15625 0.35938c0.15625 0.36328 0.32031 0.73438 0.47656 1.0977l0.16406 0.35938c0.6875 1.5508 1.3906 3.1016 2.1094 4.6406 4.3047-2.0703 8.5117-4.3242 12.84-6.8945l1.1406-0.53125c0.41406-0.10156 0.8125-0.24609 1.2305-0.30078 3.7461-0.54297 7.582 2.7617 7.3711 6.7383-0.089844 1.6914-0.86719 3.3281-2.1289 4.457-0.45312 0.40234-0.96875 0.72266-1.5117 1.043zm46.688-54.875c1.0547 0.38672 1.3672 0.41406 2.2695 1.1016 2.3594 1.7852 3.2188 5.2578 1.9023 7.9688-0.69531 1.4297-1.8047 2.5859-2.793 3.832 0 0-0.92969 1.1797-1.6953 2.1211-1.3164 1.6172-2.6641 3.2188-4.043 4.7812 0 0-0.64844 0.74609-1.332 1.5 0 0-0.69922 0.77734-1.1914 1.3203-1.8359 2.0039-3.7188 3.9766-5.6562 5.8867 0 0-0.87891 0.86719-1.7148 1.6758 0 0-0.57031 0.52734-1.0117 0.80469-2.4883 1.6016-6.043 1.2227-8.1367-0.94531-2.0547-2.1328-2.375-5.6953-0.65625-8.1719 0.67188-0.96875 1.5898-1.7031 2.418-2.5312 0 0 0.83594-0.82812 1.4336-1.4453 1.9648-2 3.8984-4.0703 5.7188-6.1367l0.26953-0.30078c0.36328-0.42188 0.82813-0.94531 0.82813-0.94531 0.99219-1.1523 1.9727-2.3125 2.9336-3.4961 0 0 0.51953-0.63672 0.91406-1.125 0.39062-0.49219 0.78516-0.99219 1.1719-1.4844 0 0 0.78516-0.99609 1.5352-1.9922 0 0 0.5-0.62891 0.92578-1.0078 0.94141-0.83594 2.1406-1.3906 3.4062-1.5625 0.83594-0.11719 1.6797 0.015625 2.5156 0.15234zm-221.86-7.5547c1.0703 0.32031 1.3828 0.33203 2.3281 0.95703 1.4102 0.93359 2.4258 2.4375 2.7617 4.0977 0.25391 1.2422 0.13281 2.5586 0.15234 3.875 0 0 0.015625 1.7812 0.054688 3.0625 0.042969 1.4766 0.14062 2.9688 0.28125 4.4414 0.039062 0.46484 0.042969 0.48828 0.066406 0.67188 0.19141 1.7266 0.44922 3.4375 0.77734 5.1445 0.015625 0.078125 0.035156 0.16406 0.050781 0.24609 0.19531 0.95703 0.41016 1.9102 0.64844 2.8555 0 0 0.12891 0.5 0.23437 0.88672 0.085938 0.33203 0.050782 0.19141 0.14063 0.51563 0.27344 0.99219 0.58984 1.9766 0.92578 2.9531l0.28516 1.2305c0.015625 0.42578 0.074219 0.84375 0.042969 1.2656-0.19141 2.9531-2.6055 5.5938-5.5938 5.9922-2.5195 0.33594-5.1641-0.95703-6.4414-3.1641-0.35156-0.60547-0.62109-1.4297-0.62109-1.4336-0.11719-0.34766-0.25391-0.75781-0.25391-0.75781-0.29297-0.90625-0.57031-1.8242-0.82813-2.75l-0.33203-1.2305c-0.32422-1.2617-0.62109-2.5273-0.875-3.8008 0 0-0.15234-0.77344-0.24609-1.3008-0.32031-1.7422-0.57813-3.4961-0.76172-5.2539 0 0-0.09375-0.86328-0.16797-1.6797 0 0-0.089844-1.1016-0.13281-1.8711-0.066407-1.0312-0.11328-2.0625-0.13281-3.0977v-0.15625c-0.015625-0.65625-0.027344-1.3086-0.035156-1.9609l-0.003907-0.33203c-0.011718-0.95312-0.023437-1.9102-0.027343-2.8672v-0.18359c0.10547-1.1133 0.050781-1.4219 0.48047-2.4766 0.64453-1.5664 1.9219-2.8516 3.4844-3.5039 1.0469-0.4375 1.3594-0.38672 2.4688-0.5 0.42188 0.039063 0.83984 0.078125 1.2656 0.11719zm130.07-24.031c1.0938 0.23438 1.4102 0.22266 2.4023 0.77344 1.4766 0.82812 2.6055 2.2461 3.0703 3.875 0.26172 0.94141 0.27344 1.9336 0.35938 2.9062 0.15625 1.7969 0.33984 3.5938 0.53906 5.3867l0.039062 0.33203c0.089844 0.78906 0.18359 1.5781 0.28516 2.3672l0.039062 0.33594 0.042969 0.33203c0.63281 4.7812 1.3984 9.5469 2.3477 14.34 0 0 0.14062 0.77734 0.14062 1.3398 0.003907 2.918-2.25 5.75-5.1914 6.3398-2.918 0.58203-6.0859-1.1016-7.2305-3.8516-1.4492-3.4883-1.5391-7.2734-2.2305-11.832-0.21094-1.4375-0.42188-2.8789-0.60547-4.3164l-0.042969-0.35938c-0.0625-0.47656-0.125-0.95312-0.17969-1.4297l-0.042968-0.37109c-0.14062-1.1875-0.27344-2.3789-0.40234-3.5664l-0.035156-0.35938c-0.17969-1.7461-0.33594-3.5-0.48047-5.2578l0.015625-1.3086c0.089844-0.41406 0.14062-0.83594 0.26953-1.2383 0.51953-1.6133 1.6953-2.9961 3.2031-3.7695 1.0117-0.51562 1.3281-0.48828 2.4258-0.6875 0.42187 0.003906 0.84375 0.015625 1.2656 0.023438zm120.57-25.883c1.0352 0.42188 1.3477 0.46094 2.2344 1.1719 1.3203 1.0625 2.1914 2.6484 2.3672 4.3398 0.13281 1.2422 0.078124 1.4766-0.33984 2.9062-0.21875 0.74609-0.44141 1.4883-0.67188 2.2344 0 0-0.30078 0.98438-0.54297 1.7344-0.23047 0.73437-0.46875 1.4688-0.71094 2.1992l-0.078124 0.23438c-0.29688 0.89062-0.59766 1.7812-0.90625 2.6719l-0.50391 1.4297c-0.59766 1.668-1.2109 3.3281-1.8555 4.9727 0 0-0.55469 1.4297-1.0117 2.5586-0.3125 0.77734-0.75 1.832-0.75 1.832-0.67188 1.6016-1.3594 3.1992-2.0703 4.7773 0 0-0.33594 0.69922-0.64453 1.125-2.1992 3.0742-7.2422 3.5625-9.9609 0.65625-1.4492-1.5469-2.0625-3.8125-1.5781-5.8789 0.11328-0.49219 0.39844-1.1797 0.41406-1.2148 0.027344-0.074219 0.0625-0.14062 0.089844-0.20703 0.0625-0.14063 0.125-0.27344 0.18359-0.41406 0.125-0.28125 0.24609-0.55469 0.37109-0.83594 1.4336-3.2656 2.7656-6.5703 4-9.918 0.60547-1.6367 1.1875-3.2812 1.7344-4.9336l0.60547-1.8203c0.21875-0.6875 0.44141-1.3789 0.65625-2.0664 0 0 0.3125-1.0078 0.57031-1.8594 0.20703-0.69531 0.39062-1.3086 0.39062-1.3086l0.46875-1.1758c0.23047-0.35156 0.42969-0.73438 0.69531-1.0586 1.0625-1.3203 2.6562-2.1914 4.3398-2.375 0.83594-0.089843 1.6797 0.066407 2.5078 0.22266zm-236.35-4.5742c-0.37109 0.96484-0.71875 1.9336-1.0586 2.9062l-0.066406 0.19141c-1.0195 2.9688-1.9023 5.9688-2.6953 9.0234-0.44141 1.7031-0.83984 3.3945-1.2109 5.1016 0 0-0.24609 1.125-0.41406 1.9609-0.26953 1.3438-0.52734 2.6953-0.76172 4.043 0 0-0.15234 0.79688-0.35938 1.3398-1.3672 3.5273-6.1211 5.2578-9.4883 3.125-1.7969-1.1367-2.9453-3.1797-2.9961-5.2969-0.015626-0.50781 0.089843-1.2383 0.09375-1.2891 0.24609-1.4062 0.50781-2.8242 0.79687-4.2344 0 0 0.22266-1.1094 0.39844-1.9219 0 0 0.20312-0.94531 0.37109-1.6758 0.20703-0.92969 0.42578-1.8633 0.65625-2.7891l0.34766-1.3828c0.37109-1.418 0.74609-2.832 1.1602-4.2461l0.0625-0.20703c0.33594-1.1602 0.6875-2.3125 1.0586-3.457 0 0 0.46875-1.4375 0.85156-2.5312 0.42188-1.2227 0.86719-2.4375 1.3281-3.6406v-0.011719c0.19141-0.375 0.33984-0.77344 0.57031-1.1328 2.0156-3.2031 7.0156-3.9883 9.9062-1.25 1.5391 1.4609 2.2773 3.6914 1.9258 5.7773-0.074219 0.41406-0.22266 0.8125-0.33594 1.2227 0 0-0.085938 0.22266-0.14062 0.37109zm342.07-7.1406c2.2617-0.0625 4.5312-0.14453 6.7891-0.26172l0.41406-0.023437c1.5117-0.089844 3.0312-0.18359 4.543-0.30078l1.2656 0.035156c0.41406 0.089844 0.83594 0.14062 1.2383 0.27344 3.5938 1.1758 5.5703 5.8398 3.6133 9.3086-0.82812 1.4766-2.2578 2.5938-3.8867 3.0508-0.41016 0.11328-0.83594 0.14453-1.25 0.21875l-0.42188 0.027344c-1.7539 0.12891-3.5117 0.24219-5.2734 0.33203l-0.44141 0.027344c-2.8242 0.12891-5.6289 0.22266-8.5 0.28125l-0.46094 0.003906c-2.2773 0.035157-4.5625 0.042969-6.8359 0.027344l-0.46484-0.003906c-1.3477-0.015625-2.6992-0.035157-4.0469-0.066407l-1.2539-0.14453c-0.40234-0.13281-0.81641-0.22266-1.2031-0.39844-2.7109-1.1875-4.3633-4.3633-3.707-7.3086 0.54688-2.4805 2.6719-4.5195 5.1797-4.9688 2.0156-0.35156 4.0078-0.039062 6.043-0.027344l0.42969 0.003906h1.3203 0.42969c2.1602 0 4.3242-0.027343 6.4844-0.085937zm-222.25-26.652c1.0742 0.30078 1.3906 0.30859 2.3477 0.91797 1.7852 1.1523 2.9297 3.2031 2.9609 5.3203 0.039063 2.0391-0.57031 3.9297-0.92969 6.1133-0.19141 1.1602-0.37109 2.3203-0.54297 3.4766l-0.042969 0.3125c-0.75781 5.1562-1.4062 10.375-1.8633 15.637l-0.035156 0.32031-0.035157 0.42187c-0.078124 0.41406-0.11719 0.83984-0.23437 1.2422-0.94531 3.2461-4.6602 5.3711-8.0078 4.3906-2.4414-0.71094-4.3359-2.9609-4.6133-5.5-0.0625-0.55469-0.003906-1.3477-0.003906-1.3477l0.027343-0.33594c0.5-5.4727 1.1328-10.969 1.9375-16.398l0.050781-0.33594c0.45313-2.9688 0.93359-5.9297 1.457-8.8828l0.027344-0.14453c0.30078-1.0742 0.30859-1.3945 0.92578-2.3477 0.91797-1.4297 2.4023-2.457 4.0586-2.8242 0.82422-0.17188 1.6758-0.11328 2.5195-0.039063zm145.52 20.195c6.25 1.043 12.551 1.9883 18.844 2.8242l0.46875 0.0625c1.9805 0.25781 3.9688 0.50781 5.957 0.75l1.2383 0.26953c0.38672 0.17188 0.79688 0.30078 1.1602 0.50781 3.3047 1.8555 4.3398 6.8086 1.7539 9.832-1.1016 1.2891-2.7148 2.1094-4.4062 2.2383-0.67188 0.050781-1.0117 0.003906-1.5625-0.0625-1.7734-0.21094-3.5547-0.4375-5.332-0.66797l-0.5-0.066406c-6.5078-0.875-13.008-1.8359-19.488-2.9062 0 0-0.84375-0.12891-1.4766-0.37109-3.1641-1.1992-4.9688-5.1289-3.7578-8.3281 0.75-1.9883 2.5156-3.5273 4.582-4.0078 0.82422-0.19141 1.6758-0.13281 2.5195-0.078124zm141.55 6.1055c-3.0312 1.4844-6.125 2.8047-9.2852 3.9805 0 0-1.5078 0.55469-2.9336 1.0469l-0.32031 0.10547-1.2383 0.28516c-0.42188 0.015625-0.83984 0.066407-1.2656 0.039063-2.9531-0.19531-5.582-2.6211-5.9688-5.6094-0.32422-2.5273 0.98047-5.1641 3.1875-6.4336 2.043-1.1758 4.3008-1.6016 6.7031-2.582 1.9414-0.79688 3.8594-1.6406 5.7305-2.5742 0 0 1.4375-0.73438 1.4375-0.73438 1.4492-0.76562 2.8672-1.5391 4.3125-2.4258 0 0 0.6875-0.42188 1.1875-0.73438 1.0039-0.63672 1.9883-1.3008 2.957-1.9883l-1.0469 0.74609 1.2266-0.875 1.0977-0.62891c0.40234-0.13281 0.78906-0.30859 1.2031-0.40234 2.8828-0.66016 6.1055 0.90234 7.3359 3.6523 1.043 2.3242 0.55469 5.2266-1.1992 7.0781-0.58203 0.62109-1.5664 1.2695-1.5664 1.2695-1.3203 0.91797-2.6641 1.8047-4.0273 2.6445l-0.32422 0.19531c-0.57812 0.34766-1.1602 0.69922-1.7422 1.0352 0 0-0.92578 0.53125-1.6172 0.91406l-0.98438 0.53125c-0.38672 0.20703-0.83984 0.44141-0.83984 0.44141-0.55469 0.28516-1.1133 0.57812-1.6797 0.85156-0.16797 0.085937-0.16797 0.085937-0.33594 0.16797zm-176.98-12.387c0.32031 0.27344 0.67188 0.51562 0.96484 0.82422 2.3516 2.4297 2.2969 6.7539-0.16406 9.1328-1.2266 1.1797-2.918 1.8359-4.6016 1.8086-0.94531-0.015625-1.8594-0.28125-2.7812-0.48047-7.8359-1.7266-15.637-3.5352-23.414-5.4336l-0.38672-0.09375c-0.39844-0.14062-0.8125-0.24219-1.1914-0.41406-3.4336-1.5977-4.8438-6.4609-2.4922-9.6719 1.25-1.7148 3.3711-2.7344 5.4883-2.6445 0.42188 0.015624 0.83594 0.11719 1.2539 0.17969l0.38672 0.09375 0.90625 0.21875c7.5039 1.8125 15.07 3.5742 22.691 5.2461l1.0312 0.22266 1.2109 0.39062c0.36328 0.20703 0.73438 0.41016 1.1016 0.61719zm13.781-39.523c1.082 0.27344 1.3984 0.26953 2.3672 0.85547 1.4492 0.87891 2.5273 2.3359 2.9297 3.9805 0.10156 0.41016 0.12891 0.83594 0.18359 1.2539 0 0.015625 0.023438 0.50781 0.023438 0.53125 0 0 0.089843 2.2773 0.125 4.1094 0 0 0.035156 2.3594 0.015624 4.4453-0.003906 0.75-0.015624 1.5-0.035156 2.2461l-0.042968 1.6953c-0.085938 2.3867-0.19531 4.7695-0.37109 7.1523 0 0-0.16406 2.1406-0.30859 3.7812-0.085938 0.86719-0.16406 1.7344-0.25391 2.6055 0 0-0.089844 0.83594-0.27344 1.4336-0.86328 2.7891-3.8594 4.8203-6.8359 4.5117-2.9609-0.30859-5.4922-2.8633-5.7695-5.8242-0.17969-1.9609 0.27344-3.875 0.45312-6.0859l0.078126-1.0703c0.18359-2.6445 0.33203-5.2734 0.39062-7.957 0 0 0.042969-1.8477 0.050782-3.3711 0 0 0.003906-1.2109-0.003906-2.3125 0 0-0.027344-1.8555-0.085938-3.5547l-0.035156-0.99609c-0.011719-0.25391-0.023438-0.50391-0.035156-0.75781l0.066406-1.2656c0.27344-1.082 0.26953-1.3945 0.85547-2.3672 0.87891-1.4492 2.3359-2.5273 3.9805-2.9297 0.81641-0.20312 1.6758-0.15625 2.5195-0.11328zm-103.29 16.129c1.1523 0.33203 2.3086 0.65625 3.4609 0.98047l1.4766 0.41406c6.4961 1.8242 12.965 3.6289 19.516 5.4219l0.37891 0.10156c0.39062 0.15234 0.80078 0.26172 1.1797 0.45312 2.6445 1.3203 4.1445 4.5703 3.3477 7.4805-0.77734 2.8516-3.6719 4.9492-6.6797 4.7422-0.69922-0.050781-1.0586-0.16406-1.6367-0.32031-8.0352-2.1914-16.023-4.4258-24.02-6.6875l-0.54297-0.15625c-0.39062-0.15234-0.80469-0.26953-1.1797-0.46094-2.6484-1.3477-4.0898-4.6484-3.2773-7.5078 0.6875-2.4453 2.9297-4.3633 5.4609-4.6602 0.83594-0.10156 1.6797 0.050781 2.5078 0.19531zm-101.15-10.438c0.39844 0.14453 0.8125 0.25391 1.1875 0.4375 2.6641 1.293 4.1836 4.5625 3.4258 7.4492-0.42578 1.6406-1.5195 3.0781-2.9844 3.9375-1.5664 0.91797-3.1914 1.2656-4.457 1.7852-0.57812 0.24219-1.1523 0.48828-1.7305 0.74609 0 0-1.9336 0.88672-3.2461 1.5664-0.75781 0.39062-1.5 0.80078-2.2383 1.2266-3.1094 1.7734-6.1133 3.8711-8.8984 6.2656l-0.63672 0.54688-1.0234 0.74609-1.1523 0.51953c-0.41016 0.10156-0.8125 0.23438-1.2305 0.29297-3.3555 0.44922-6.8047-2.1562-7.2578-5.543-0.23047-1.6797 0.23438-3.4336 1.2656-4.7773 0.30859-0.40234 0.84375-0.90625 0.88672-0.94531 0.042968-0.039063 0.089844-0.078125 0.13281-0.11328 0.33594-0.29688 0.76172-0.66016 0.76172-0.66016 0.33984-0.28516 0.77344-0.64844 0.77344-0.64844 0.95703-0.77734 1.9219-1.5391 2.9102-2.2734l1.4883-1.082c0.63281-0.4375 1.5078-1.0312 1.5078-1.0312 0.64453-0.42578 1.2891-0.84375 1.9414-1.25 0 0 1.3086-0.79688 1.9648-1.1758 0.85156-0.49219 1.707-0.96484 2.5703-1.418l0.29297-0.15234c0.71875-0.37109 1.4336-0.73438 2.1602-1.082 0 0 0.75-0.35156 1.457-0.67188l0.89453-0.40234 1.0195-0.4375c0.68359-0.28516 1.6406-0.66797 1.6406-0.66797 0.93359-0.36328 1.8828-0.71875 2.832-1.0469l1.2305-0.29688 1.2656-0.050781c0.41406 0.066407 0.83594 0.13281 1.25 0.20312zm37.199-4.4688c0.21094 0.015626 0.42578 0.035157 0.63672 0.050782l0.3125 0.023437c0.32031 0.027344 0.63672 0.054688 0.95703 0.085938l0.32422 0.027343c8.1602 0.77734 16.23 2.2773 24.207 4.3164l1.1914 0.42969c0.35938 0.21875 0.74609 0.40234 1.082 0.65625 2.7109 2.0273 3.3477 6.3047 1.3008 9.043-1.2695 1.7031-3.3984 2.6953-5.5156 2.5742-3.0625-0.16406-5.8906-1.3828-9.5312-2.1406-1.4492-0.30078-2.918-0.55859-4.3867-0.80078l-0.28516-0.042969c-3.3594-0.53906-6.7539-0.96484-10.113-1.25 0 0-0.66797-0.054688-1.25-0.10156l-1.25-0.21094c-0.39062-0.15625-0.80469-0.26953-1.1797-0.46094-2.6445-1.332-4.1094-4.625-3.3164-7.4922 0.67578-2.4531 2.9062-4.375 5.4336-4.6875 0.46094-0.054688 0.92578-0.054688 1.3789-0.023438zm373.28-16.574c-0.29688 5.5156-0.99609 11.047-2.168 16.262-0.59375 2.6484-1.3164 5.2734-2.1523 7.8438l-0.0625 0.20313c-0.25391 0.75781-0.51563 1.5117-0.78906 2.2617 0 0-0.29297 0.75-0.58203 1.2305-1.9648 3.2305-6.957 4.0938-9.8828 1.3984-1.5664-1.4336-2.3398-3.6523-2.0156-5.7461 0.16406-1.0586 0.60938-2.0391 0.95312-3.0586 0 0 0.27344-0.82422 0.46094-1.4297 1.0039-3.2266 1.7578-6.6406 2.2617-9.6367 0 0 0.23437-1.457 0.36328-2.3867 0.050781-0.36328 0.10156-0.77344 0.10156-0.77344 0.24609-1.9492 0.42969-3.9023 0.55469-5.8594l0.085937-1.4688c0.0625-0.42188 0.085938-0.84375 0.18359-1.2539 0.82422-3.2812 4.4531-5.543 7.8398-4.6914 2.4648 0.61719 4.4414 2.8008 4.8164 5.3203 0.089844 0.58984 0.066406 1.1875 0.035156 1.7734zm-313.73-21.469c1.0938 0.24609 1.4062 0.23438 2.3906 0.79688 1.8555 1.0469 3.1016 3.0312 3.2578 5.1445 0.078125 1.1328-0.066407 1.4062-0.3125 2.4961-0.19531 0.59375-0.38672 1.1914-0.58203 1.7852l-0.19531 0.59375c-0.64844 1.9883-1.2891 3.9688-1.9219 5.957l-0.19141 0.59766c-0.19141 0.59766-0.375 1.1914-0.56641 1.793-1.3984 4.4688-2.75 8.9609-4.043 13.461 0 0-0.35156 1.3906-1.2227 2.4805-2.1055 2.6484-6.4023 3.1641-9.0781 1.0352-1.6562-1.3203-2.5938-3.4766-2.4141-5.5938 0.074219-0.89062 0.28516-1.457 0.53125-2.3008 2.2969-7.9844 4.8047-15.922 7.4141-23.855v-0.011719c0.17187-0.38672 0.30859-0.79688 0.51562-1.1602 0.83594-1.4766 2.2617-2.5859 3.8984-3.0391 0.8125-0.22266 1.668-0.20703 2.5156-0.18359zm91.219-24.633c1.043 0.41016 1.3555 0.44141 2.2461 1.1484 0.66016 0.51953 1.1523 1.2227 1.6289 1.9219 0.28516 0.41406 0.57812 1.043 0.57812 1.043 0.21094 0.38672 0.44922 0.82813 0.44922 0.82813s0.8125 1.5078 1.4492 2.7617c0.28516 0.55469 0.64453 1.2695 0.64453 1.2695 0.32422 0.65625 0.75 1.5195 0.75 1.5195 0.3125 0.65625 0.72266 1.5195 0.72266 1.5195 0.71094 1.5273 1.4102 3.0742 2.0664 4.6211l0.10156 0.22266c1.5195 3.6016 2.8945 7.2578 4.1172 10.941l0.28125 1.2305c0.011718 0.42188 0.0625 0.84375 0.035156 1.2656-0.27344 3.7734-4.3164 6.8203-8.1602 5.7617-1.6367-0.45312-3.0625-1.5625-3.9023-3.0391-0.46484-0.82422-0.70703-1.7422-1.0117-2.6367 0 0-0.67188-1.9609-1.2695-3.5508-1.1719-3.1016-2.4648-6.1719-3.8516-9.1328 0 0-0.90234-1.8984-1.5195-3.1367-0.51953-1.0352-1.0586-2.0703-1.6055-3.0977 0 0-0.56641-1.0469-1.1719-2.1445l-0.48828-1.1211-0.26953-1.2383c-0.015625-1.1211-0.10547-1.4219 0.20703-2.5156 0.58203-2.043 2.2109-3.7305 4.2344-4.3789 1.0742-0.34766 1.3828-0.26953 2.5039-0.29297 0.41406 0.078126 0.82812 0.15234 1.2422 0.23047zm205.48-24.035c1.0742 0.30859 1.3906 0.3125 2.3477 0.92969 1.0625 0.68359 1.8086 1.7344 2.418 2.8633 0.60938 1.1094 1.0977 2.5586 1.625 3.875l0.71875 1.8203c0.28516 0.75 0.57812 1.5 0.85156 2.2578l0.074219 0.20312c1.2305 3.375 2.3672 6.8047 3.3477 10.254l0.0625 0.20312c0.50391 1.7812 0.98438 3.5742 1.4297 5.3711 0 0 0.21094 0.86719 0.36328 1.5234 0 0 0.16406 0.76562 0.18359 1.3086 0.11328 2.9531-2.0273 5.8242-4.957 6.5234-2.8789 0.68359-6.1133-0.85156-7.3711-3.5898-1.668-3.6289-1.9336-7.4258-3.4844-12.207-0.63672-1.9609-1.3086-3.8906-2.0508-5.8633-0.81641-2.1836-1.7031-4.3633-2.625-6.5l-0.023438-0.050781c-0.33984-1.0625-0.50781-1.3281-0.52734-2.4648-0.042968-2.543 1.5508-5.0195 3.8906-6.0273 1.043-0.45312 1.3477-0.40234 2.4648-0.53125 0.42188 0.035157 0.83984 0.074219 1.2617 0.10547zm-275.87-12.461c1.0977 0.23437 1.4102 0.21875 2.4023 0.77344 2.2305 1.2305 3.5742 3.8398 3.2812 6.3789-0.078125 0.71875-0.21875 1.0977-0.41406 1.7031-0.67188 2.0703-1.3477 4.1484-2.0391 6.2227l-0.19141 0.57031c-1.9258 5.7383-3.8789 11.434-5.8633 17.137 0 0-0.27344 0.8125-0.61719 1.3906-1.9141 3.2656-6.8945 4.1953-9.8633 1.5469-1.5898-1.418-2.3906-3.6172-2.1016-5.7188 0.09375-0.6875 0.20312-0.95312 0.37891-1.4609 0.78906-2.2773 1.5859-4.5586 2.3672-6.8359l0.19531-0.57031c0.57813-1.6797 1.0977-3.1992 1.7305-5.0781 0.44141-1.3086 0.88672-2.6133 1.3203-3.9258l0.19141-0.55859c0.67188-2.0391 1.3477-4.082 2.0117-6.125l0.17969-0.54688 0.14062-0.44141 0.50391-1.1602c0.48047-0.69531 0.96875-1.3984 1.6289-1.9258 0.66016-0.52734 1.4219-0.91797 2.2383-1.1523 0.8125-0.23047 1.6641-0.21875 2.5078-0.20703zm28.016-11.723c1.2617 0.48828 1.2383 0.35156 2.4922 1.332 2.7617 2.1836 5.4102 4.3672 8.1914 6.7969 0 0 2.4688 2.1797 4.2227 3.8086 0.57031 0.53125 1.1406 1.0703 1.7148 1.6133l1.1875 1.1367c1.4102 1.3789 2.793 2.7656 4.168 4.1836 0 0 0.58203 0.60938 0.91797 1.1328 1.6016 2.5039 1.1758 6.0742-0.96875 8.1367-2.1328 2.0547-5.7305 2.3477-8.1719 0.64453-1.1914-0.83594-2.0781-1.9805-3.0703-2.9727l-0.15625-0.15625c-0.46484-0.46094-0.92969-0.92578-1.3984-1.3828 0 0-0.67578-0.66016-1.2539-1.2109-1.2773-1.2227-2.5742-2.418-3.8789-3.5938-0.53906-0.48828-0.98047-0.87891-1.4766-1.3164 0 0-1.5898-1.3906-2.5078-2.168-1.8633-1.5859-3.7578-3.1367-5.668-4.625 0 0-0.62109-0.50781-0.98438-0.93359-1.9375-2.2578-2.0156-5.8516-0.17969-8.1914 1.0547-1.332 2.625-2.2227 4.3125-2.4258 0.83594-0.10156 1.6797 0.042969 2.5156 0.19531zm211.87-27.816c0.375 0.19141 0.77344 0.34766 1.1328 0.57031 1.668 1.0547 2.8555 2.543 4.2656 3.9531 1.3555 1.3555 2.6953 2.7227 4.0039 4.1211l0.87891 0.93359c0.38672 0.42188 0.86719 0.94531 0.86719 0.94531 1.5352 1.6875 3.0469 3.3945 4.5117 5.1367 0 0 0.54688 0.64844 0.96484 1.1484 0.81641 0.98438 1.625 1.9766 2.418 2.9805 0 0 0.54688 0.69531 1.0625 1.3477 0 0 0.46484 0.63281 0.70703 1.1133 1.5117 3.0234 0.23047 7.1055-2.8906 8.6641-2.2734 1.1367-5.1953 0.77344-7.125-0.89453-0.37891-0.33203-0.85156-0.89453-0.88672-0.94141-0.039062-0.050781-0.085937-0.10156-0.125-0.15234-3.6406-4.6641-7.6211-9.2461-11.574-13.289 0 0-0.70703-0.72266-1.1211-1.1406-0.37109-0.375-0.83594-0.83984-0.83594-0.83984-1.0039-0.99219-2.0117-1.9727-3.0312-2.9414l-0.82812-0.96484c-0.20703-0.36328-0.45312-0.71094-0.62891-1.0977-1.2031-2.7031-0.25391-6.1875 2.1797-7.9023 0.69531-0.48828 1.4727-0.83984 2.3008-1.0234 1.1094-0.25391 1.4062-0.14453 2.5195-0.066407 0.41016 0.11328 0.8125 0.22266 1.2227 0.33594zm-267.7-4.9727c0.39844 0.12891 0.80078 0.26172 1.1992 0.39844 0.050781 0.015625 0.99609 0.44141 1.7656 0.78906 4.3672 1.9805 8.6953 4.0586 12.977 6.2266l0.42969 0.22266 0.42578 0.21875 0.42578 0.21094c1.2812 0.66016 2.5547 1.3281 3.8242 2.0039l0.42578 0.22266 0.42578 0.23047 0.42578 0.22266c0.70703 0.37891 1.4062 0.76172 2.1094 1.1484 3.8203 2.1016 4.2227 5.3477 3.4375 7.8281-1.0234 3.2266-4.8477 5.2422-8.1133 4.207-0.98437-0.3125-1.8477-0.875-2.75-1.3672l-0.41016-0.22266-0.40234-0.21094c-1.4883-0.80078-2.9805-1.5859-4.4727-2.3594l-0.40234-0.20703-0.82031-0.42188c-3.293-1.6641-6.6133-3.2891-9.9414-4.8398l-0.42188-0.19531c-1.3945-0.64453-2.7891-1.2773-4.1953-1.9102l-1.0977-0.62109c-0.32031-0.28125-0.66797-0.52734-0.95703-0.82813-2.0391-2.1445-2.3281-5.7109-0.59375-8.1758 0.98047-1.3828 2.5078-2.3516 4.1836-2.6367 0.82813-0.14453 1.6797-0.039062 2.5195 0.066407zm56.402-12.758c1.082 0.27344 1.3984 0.27344 2.3672 0.85547 2.5312 1.5352 3.7578 4.8945 2.7344 7.7266-0.57031 1.5781-0.92969 1.668-2.8711 3.9102-1.1484 1.3203-2.2734 2.6758-3.3477 4.0586 0 0-0.51562 0.66797-0.85547 1.1211-0.64453 0.85156-1.2773 1.7148-1.8867 2.5938 0 0-1.0234 1.4492-1.8203 2.6758 0 0-0.62891 0.94531-1.2695 1.9922l-1.1406 1.8867c-0.68359 1.1758-1.3672 2.3633-2.0117 3.5664 0 0-0.39844 0.71094-0.76562 1.1523-2.4141 2.918-7.4688 3.0508-9.9844-0.039063-1.3398-1.6406-1.7852-3.9492-1.1641-5.9766 0.55469-1.8047 1.6953-3.4062 2.6992-5.0977 0 0 0.36328-0.62109 0.74609-1.25l0.75781-1.2305c0.41406-0.66016 0.99219-1.5586 0.99219-1.5586 0.20703-0.32422 0.44922-0.6875 0.44922-0.6875 0.46875-0.71875 1.1367-1.6953 1.1367-1.6953 0.25781-0.375 0.57031-0.82812 0.57031-0.82812 2.1523-3.0742 4.4336-6.0312 6.9102-8.8867 0.085937-0.089844 0.16406-0.18359 0.24609-0.28125 0.56641-0.64453 1.1367-1.2891 1.7188-1.9219 0 0 0.54688-0.57812 1.0039-0.91406 0.68359-0.5 1.457-0.86328 2.2773-1.0703 0.81641-0.20312 1.6758-0.15625 2.5195-0.11328zm-117.02-8.5586c0.86328 0.23438 1.7305 0.47656 2.5938 0.71875l0.4375 0.11719c1.1719 0.32422 2.3359 0.65625 3.5 0.99219l0.4375 0.125c4.2734 1.2305 8.5352 2.5078 12.789 3.8711l0.4375 0.14062c1.4766 0.46875 2.957 0.95312 4.4336 1.4375 3.4375 1.1367 4.6875 3.4648 4.8555 5.8125 0.21094 2.9453-1.8203 5.8906-4.7266 6.6914-1.5 0.41406-3.0625 0.12891-4.6094-0.37891l-0.4375-0.14062c-0.28516-0.09375-0.57031-0.19141-0.85547-0.28125l-0.4375-0.14453c-0.42969-0.14062-0.86328-0.27344-1.293-0.41406l-0.42578-0.14063c-5.4023-1.7266-10.852-3.3711-16.277-4.8828l-0.4375-0.11719c-0.84375-0.24219-1.6914-0.46875-2.543-0.70703l-0.83984-0.23047c-0.39062-0.15234-0.80078-0.26172-1.1797-0.44922-2.6602-1.3281-4.1328-4.6094-3.3477-7.4805 0.66797-2.4531 2.8906-4.3906 5.4141-4.7109 0.83594-0.10547 1.6797 0.035156 2.5156 0.17187zm273.84-9.5273c0.48047 0.16406 1.1797 0.38672 1.2266 0.41016 0.0625 0.027344 0.12891 0.054687 0.19141 0.085937 0.0625 0.027344 0.125 0.054688 0.18359 0.085938 5.8125 2.5859 11.637 5.5703 16.398 8.2383 0 0 1.0586 0.59375 1.6562 0.94141 3.4141 1.9531 6.6992 4.0039 10.008 6.0352l-4.8477-2.9727 1.0117 0.76562c0.28125 0.3125 0.58984 0.60547 0.83984 0.94531 2.2227 3.0625 1.0938 7.9961-2.5273 9.6602-1.5469 0.71094-3.3477 0.77734-4.9453 0.19141-2.4453-0.90234-4.4961-2.6055-7.3359-4.1992-2.5273-1.418-5.1289-2.8125-7.6836-4.0898 0 0-0.8125-0.41016-1.418-0.70703-2.2344-1.1016-4.4961-2.1602-6.7773-3.1758h-0.011719c-0.36328-0.20703-0.75781-0.37891-1.1016-0.62891-2.7656-1.9414-3.5352-6.1992-1.5664-9 0.98047-1.3906 2.5078-2.3594 4.1758-2.6484 0.82812-0.14062 1.6797-0.039063 2.5195 0.0625zm-337.75-3.9141c3.8867 0.59375 7.7656 1.2305 11.672 1.9141l0.36328 0.0625c3.5859 0.62891 7.1445 1.2812 10.695 1.9609l0.39844 0.078125c0.78906 0.15234 1.5742 0.30859 2.3633 0.46094 0 0 1.4102 0.24219 2.5742 1.0195 2.457 1.6445 3.5273 5.0586 2.3672 7.8438-0.97266 2.3477-3.4219 3.9805-5.9688 3.9805-0.72266-0.003907-0.95703-0.066407-1.4766-0.17188-2.6641-0.51953-5.3086-1.0312-7.9922-1.5195l-0.37891-0.066406c-5.1289-0.93359-10.297-1.8086-15.418-2.6094l-0.67578-0.10547-0.46875-0.074218-1.2266-0.3125c-0.37891-0.18359-0.78516-0.33203-1.1406-0.54688-2.8945-1.7539-3.9531-5.9414-2.1836-8.8711 0.87891-1.4492 2.3398-2.5195 3.9883-2.9297 0.81641-0.19531 1.6758-0.15625 2.5156-0.11328zm236.59-8.9375c0.40234 0.11328 0.82422 0.18359 1.2148 0.33984 3.1523 1.2266 4.9219 5.1758 3.6797 8.3594-0.61719 1.5781-1.8633 2.8828-3.4141 3.5664-1.8711 0.82422-3.8594 0.97266-6.0195 1.5508-2.6602 0.71094-5.2812 1.4844-7.875 2.3867 0 0-0.82812 0.29297-1.4297 0.50391-0.54687 0.20312-1.2891 0.47656-1.2891 0.47656-2.582 0.97266-5.1172 2.0312-7.6055 3.2031 0 0-0.72266 0.32422-1.2539 0.46094-3.2812 0.82422-7-1.3672-7.8359-4.6914-0.62109-2.4688 0.37109-5.2422 2.4141-6.7578 1.9219-1.4297 4.2773-2.1445 7.0898-3.2773 0.76172-0.30859 1.5273-0.60938 2.3008-0.89453 0 0 1.0117-0.37891 1.7812-0.66016 0.53906-0.19531 1.25-0.44141 1.25-0.44141 1.2031-0.41406 2.4141-0.82422 3.625-1.1992 0 0 1.4219-0.4375 2.0234-0.61719 1.0977-0.32031 2.1992-0.63281 3.3086-0.92578l0.17188-0.042969c1.7344-0.45312 3.4844-0.87891 5.2344-1.2656l0.10547-0.023437 1.2539-0.15234c0.42188 0.035156 0.83984 0.066406 1.2656 0.10156zm-288.59 3.2891c3.8359 0.16797 7.6602 0.46094 11.492 0.78516l0.37109 0.035156c0.53125 0.042969 1.2656 0.10547 1.2656 0.10547 0.41406 0.078125 0.83984 0.11719 1.25 0.23438 3.2422 0.94531 5.3633 4.6641 4.3867 8.0117-0.71094 2.4414-2.9688 4.3359-5.5 4.6094-0.95703 0.10547-1.9102-0.042969-2.8438-0.125l-0.35938-0.027344c-3.5156-0.28516-7.0508-0.56641-10.594-0.72656 0 0-0.77344-0.050781-1.2891-0.17187-3.6797-0.87891-6.0312-5.3594-4.3672-8.9766 0.88672-1.9258 2.7617-3.3477 4.8555-3.6836 0.44141-0.066406 0.89062-0.089843 1.3398-0.066406zm326.5-6.1445c2.3398 0.14453 4.6719 0.33203 6.9961 0.57031 2.5352 0.25781 5.0469 0.57812 7.6172 0.94531l0.99609 0.15234c1.0039 0.15625 2.0039 0.3125 3.0078 0.48828 0 0 0.81641 0.13281 1.4219 0.24609 2.0703 0.375 4.1367 0.77344 6.1992 1.2148 0 0 0.81641 0.17969 1.3789 0.42188 2.3008 0.98438 3.9492 3.4375 3.9219 6.0156-0.039063 3.3828-3.1133 6.4219-6.5352 6.3828-0.42578-0.003907-0.83984-0.089844-1.2617-0.14063-0.015625 0-0.375-0.078124-0.39844-0.085937-0.19141-0.039063-0.375-0.078125-0.56641-0.125-2.8711-0.60547-5.7969-1.1367-8.5508-1.5625l-0.56641-0.089844c-2.5977-0.38672-5.1953-0.72656-7.7969-0.99609-0.30859-0.035157-0.62109-0.0625-0.92969-0.09375-1.4766-0.14453-2.957-0.26953-4.4414-0.37109 0 0-0.63672-0.039063-1.2891-0.085938 0 0-0.80078-0.0625-1.3477-0.20703-2.8633-0.75-4.9844-3.668-4.8008-6.6406 0.18359-2.957 2.625-5.6016 5.5781-6.0039 0.45312-0.0625 0.91797-0.066406 1.3672-0.039063z" fill-rule="evenodd"/>
  <path d="m474.43 404.23c3.1016 0.13281 5.8984 2.625 6.25 5.7227 0.35938 3.1211-1.8711 6.3398-5.0117 7.0391-0.074219 0.015624-0.15234 0.027343-0.22266 0.042968l-19.691 3.6641c-3.5156 0.58984-7.1914-2.0391-7.5977-5.6172-0.35938-3.1211 1.8711-6.3398 5.0195-7.0391 0.074218-0.015625 0.14453-0.035157 0.21875-0.042969l19.691-3.6641c0.34766-0.054688 0.48828-0.11328 1.3477-0.10547z" fill-rule="evenodd"/>
  <path d="m474.43 404.23c0.18359 0.003906 0.23047 0.003906 0.41406 0.023437 2.0781 0.19141 4.0039 1.457 5.0625 3.2891l9.625 17.258c1.2383 2.2969 0.98047 5.2695-0.65625 7.2539-2.5938 3.1406-8.2773 2.957-10.523-0.77734-0.035157-0.0625-0.066407-0.125-0.10547-0.17969l-9.625-17.258c-1.6797-3.1367-0.35938-7.5078 2.9609-9.0273 0.57031-0.25781 1.1758-0.4375 1.7969-0.51953 0.34766-0.042969 0.69922-0.0625 1.0469-0.054688z" fill-rule="evenodd"/>
   </g>
</svg>
